<svg width="24" height="24" viewBox="0 0 24 24" fill="none" xmlns="http://www.w3.org/2000/svg">
<path d="M17.4 1C15.25 1.00332 13.2359 2.05195 12 3.81113C10.7641 2.05195 8.75 1.00332 6.6 1C3.08398 1 0 4.27129 0 8C0 11.634 2.05195 15.3768 5.93438 18.824C7.7332 20.4182 9.70645 21.8039 11.8164 22.9553C11.9316 23.0146 12.0684 23.0146 12.1836 22.9553C14.2928 21.8039 16.2654 20.418 18.0637 18.824C21.948 15.3768 24 11.634 24 8C24 4.27129 20.916 1 17.4 1V1ZM12 22.1451C10.5309 21.3344 0.8 15.6703 0.8 8C0.8 4.69727 3.50996 1.8 6.6 1.8C8.69336 1.80371 10.623 2.93301 11.6516 4.75645C11.7285 4.87402 11.8596 4.94473 12 4.94473C12.1404 4.94473 12.2715 4.87402 12.3484 4.75645C13.377 2.93301 15.3066 1.80371 17.4 1.8C20.49 1.8 23.2 4.69727 23.2 8C23.2 15.6703 13.4691 21.3344 12 22.1451Z" fill="#F42C3C"/>
<path d="M12.1118 5.11732C12.3192 4.97089 12.4111 4.83819 12.5202 4.62014C12.557 4.54643 12.5642 4.42481 12.6287 4.36957C12.7945 4.22744 12.9545 4.07298 13.1239 3.92961C13.2796 3.79782 13.4647 3.72695 13.6033 3.57448C13.7443 3.41942 13.8525 3.31145 14.0314 3.19962C14.193 3.09866 14.4357 3.04481 14.5779 2.91552C14.6481 2.85176 14.7242 2.8047 14.8127 2.7715C14.9287 2.72801 14.9695 2.62778 15.0949 2.59196C15.2851 2.5376 15.4016 2.41834 15.6256 2.41834C15.726 2.41834 15.8227 2.33579 15.9136 2.29602C15.9951 2.26036 16.1095 2.26283 16.1977 2.24078C16.5924 2.14212 16.9296 2.0277 17.3401 2.0277C17.7721 2.0277 18.2004 2.03887 18.6264 2.06321C18.8854 2.07801 19.1463 2.26546 19.3919 2.34732C19.6211 2.42371 19.8452 2.50057 20.0311 2.66693C20.202 2.81979 20.4205 2.86862 20.6191 2.97076C20.7869 3.05707 21.0374 3.12516 21.1478 3.27854C21.2276 3.38936 21.4517 3.48733 21.4517 3.64156C21.4517 3.75029 21.5971 4.0417 21.6667 4.12296C21.7477 4.21745 21.7947 4.34729 21.8837 4.43073C21.9762 4.51746 22.0824 4.61485 22.1441 4.7247C22.2594 4.92955 22.4061 5.12671 22.4973 5.34815C22.5998 5.59704 22.709 5.86264 22.8031 6.11365C22.9062 6.38862 23.0497 6.5374 23.0497 6.84166C23.0497 7.06778 23.1208 7.28193 23.1208 7.51246C23.1208 7.65236 23.1429 7.78446 23.1582 7.92283C23.1852 8.16574 23.2628 8.386 23.2628 8.63308C23.2628 8.87763 23.3148 9.19635 23.2431 9.43212C23.1535 9.72638 23.0419 10.0175 22.9254 10.3022C22.8686 10.4411 22.7683 10.5541 22.7143 10.6928C22.6718 10.8022 22.678 10.9269 22.6236 11.0302C22.5512 11.1678 22.5881 11.688 22.5881 11.2235C22.5881 10.8477 22.6396 10.4854 22.7479 10.1246C22.8419 9.81109 22.9787 9.46677 22.9787 9.14013C22.9787 8.90535 22.9787 8.67057 22.9787 8.43579C22.9787 8.09761 22.9162 7.84432 22.7992 7.52824C22.6203 7.0453 22.4344 6.56081 22.1935 6.10576C21.7694 5.30481 21.3037 4.40723 20.5993 3.81123C20.3395 3.59137 20.1774 3.26791 19.9049 3.06546C19.5462 2.79905 19.0101 2.88001 18.5909 2.88001C18.1044 2.88001 17.5727 2.91538 17.0994 3.02206C16.9355 3.05898 16.7559 3.09834 16.5903 3.12071C16.3464 3.15367 16.045 3.11077 15.813 3.19962C15.6071 3.27848 15.401 3.41034 15.2211 3.53502C14.8512 3.79146 14.4437 4.01976 14.0453 4.2295C13.7009 4.41073 13.39 4.73702 13.2127 5.0818C13.1106 5.2802 12.959 5.43674 12.8575 5.63422C12.813 5.72092 12.6124 5.91703 12.7037 5.88281C12.9658 5.78453 13.2363 5.48428 13.4336 5.28699C13.6085 5.11209 13.9374 5.03618 14.1636 4.95554C14.6949 4.76618 15.2516 4.59088 15.8091 4.50571C16.2253 4.44212 16.6203 4.22088 17.0402 4.16636C17.2964 4.13308 17.5551 4.14733 17.8096 4.11507C18.0827 4.08045 18.3282 4.01848 18.6106 4.01642C18.659 4.01606 19.3761 4.07906 19.3564 3.94539C19.309 3.62312 18.0732 3.73232 17.8767 3.73232C17.4732 3.73232 17.1073 3.75188 16.7206 3.86648C16.4188 3.95589 16.1118 3.91576 15.8091 4.0322C15.5979 4.11341 15.3934 4.16793 15.2093 4.30052C15.1439 4.34759 15.2457 4.33572 15.2803 4.33603C15.6646 4.3395 16.0473 4.33 16.4305 4.30052C17.2402 4.23824 18.0554 4.26501 18.8671 4.26501C19.4472 4.26501 19.9581 4.35046 20.5106 4.49584C21.0039 4.62568 21.3186 5.48454 21.4536 5.90649C21.5935 6.34373 21.663 6.82457 21.7338 7.27768C21.7891 7.63154 21.8834 7.97753 21.9488 8.32925C22.0564 8.90752 22.1619 9.51726 22.1619 10.1069C22.1619 10.4729 22.2834 9.88128 22.298 9.79712C22.3897 9.27024 22.3065 8.73606 22.4085 8.2089C22.4548 7.96995 22.4775 7.68296 22.4263 7.44143C22.353 7.09621 22.091 6.81761 21.8739 6.55164C21.7098 6.35064 21.5476 6.13747 21.3412 5.97752C21.0695 5.76699 20.7592 5.60634 20.481 5.40339C19.9994 5.05216 19.5122 4.71012 19.0289 4.36168C18.8268 4.216 18.7882 4.12669 18.7882 3.87437C18.7882 3.7035 18.7209 3.46751 18.9322 3.41467C19.0844 3.37663 19.2598 3.34987 19.4077 3.41665C19.5249 3.4696 19.6165 3.57475 19.7234 3.64551C19.8219 3.71079 19.9345 3.74388 20.0331 3.80729C20.2675 3.95794 20.4192 4.13005 20.548 4.37747C20.8638 4.98373 21.0152 5.73905 21.1241 6.40761C21.2769 7.34475 21.3882 8.29766 21.5207 9.23878C21.5916 9.74237 21.655 10.2594 21.5976 10.7678C21.5809 10.9163 21.4638 11.1384 21.4891 11.2906C21.4918 11.3066 21.6637 10.884 21.6766 10.8349C21.7681 10.4846 21.7967 10.1204 21.8048 9.75963C21.8123 9.42671 21.825 9.08228 21.7831 8.75146C21.7391 8.40429 21.594 8.06821 21.4655 7.74526C21.0137 6.61007 20.0837 5.4138 18.9362 4.922C18.3037 4.65095 17.6568 4.51863 16.981 4.40903C16.4711 4.32635 16.0253 4.43722 15.5664 4.67341C15.1339 4.89603 14.7075 5.24672 14.426 5.64409C14.2777 5.85352 14.2012 6.08943 14.0433 6.29318C13.8461 6.54766 13.6237 6.75032 13.3784 6.95609C13.3126 7.01126 13.3255 6.82134 13.3271 6.80023C13.3484 6.51236 13.4433 6.2279 13.5915 5.98146C13.7271 5.7559 13.8911 5.54642 13.9683 5.29093C13.9813 5.24801 14.002 5.11881 13.9782 5.15677C13.6883 5.61801 13.5023 6.2434 13.5323 6.79036C13.546 7.04001 13.9865 6.57305 14.1853 6.42143C14.7762 5.97077 15.3338 5.49576 15.8564 4.96737C15.9153 4.90785 15.9544 4.78757 16.0379 4.79375C16.0543 4.79497 16.0393 4.82697 16.0359 4.84308C16.0125 4.95569 15.9267 5.20747 15.9038 5.27712C15.6374 6.08498 15.3453 6.88486 15.0949 7.69791C15.0687 7.7827 15.0568 7.87203 15.0238 7.9544C14.9794 8.06536 15.0428 7.71487 15.0732 7.59927C15.2647 6.86931 15.6918 6.23156 16.0182 5.55925C16.0824 5.42691 16.3476 4.80877 16.0715 5.31856C15.7108 5.98447 15.2964 6.62413 14.862 7.24414C14.809 7.31989 14.5965 7.61651 14.5148 7.70975C14.4969 7.73015 14.4786 7.76441 14.4517 7.76105C14.3618 7.74981 14.4876 7.58311 14.5148 7.49667C14.716 6.85639 14.9416 6.2152 15.0712 5.55531C15.0775 5.52304 15.09 5.42972 15.0712 5.45666C14.9744 5.59488 14.9067 5.80483 14.8443 5.95384C14.7251 6.2384 14.6287 6.48122 14.5188 6.77261C14.4427 6.97419 14.2386 7.36772 14.2386 7.60716C14.2386 7.68086 14.3281 7.4895 14.3649 7.42565C14.5816 7.04957 14.7804 6.66357 14.9745 6.27543C15.0394 6.14565 15.2282 5.75433 15.3139 5.59674C15.4407 5.36351 15.4093 5.48783 15.3592 5.59871C15.0834 6.20974 14.8108 6.81502 14.5898 7.44932C14.5563 7.5455 14.4429 7.77266 14.5424 7.75118C14.8467 7.68556 15.3041 7.09972 15.4816 6.90874C16.0569 6.28952 16.5487 5.60289 17.0875 4.95356C17.163 4.86256 17.0646 5.04013 17.0619 5.04629C16.9205 5.36984 16.7875 5.69755 16.6653 6.02881C16.5389 6.37159 16.3378 6.79429 16.3378 7.17114C16.3378 7.42421 16.3968 6.66801 16.4443 6.41945C16.4664 6.30434 16.5057 6.11373 16.5351 5.9933C16.5406 5.97066 16.5354 5.93915 16.5548 5.92622C16.6322 5.87464 16.5164 6.1087 16.4858 6.19651C16.3009 6.72696 15.9994 7.20325 15.7183 7.68608C15.3364 8.3421 16.218 6.24744 16.5627 5.57109C16.624 5.45086 16.5347 5.84171 16.4917 5.96962C16.2204 6.77717 15.8365 7.53698 15.5388 8.3332C15.5202 8.38286 15.4838 8.53066 15.519 8.49103C15.742 8.24018 15.8962 7.84833 16.0576 7.56375C16.2756 7.17961 16.4087 6.95083 16.6377 6.57729C16.7542 6.38716 16.9255 6.01125 17.1072 5.85322C17.1557 5.81109 17.1002 5.98209 17.0855 6.04459C17.0009 6.405 16.9059 6.76292 16.8153 7.12182C16.8142 7.12603 16.5325 8.1699 16.7265 7.7867C16.9987 7.24888 17.1279 6.64358 17.2217 6.05249C17.2404 5.93454 17.2494 5.81516 17.269 5.69736C17.2875 5.58654 17.2449 5.9213 17.2197 6.03078C17.0773 6.64937 16.8512 7.24709 16.5982 7.82813C16.5778 7.87505 16.5241 8.01692 16.5312 7.96623C16.5653 7.72006 16.7016 7.42027 16.7758 7.19482C16.8779 6.88446 16.9793 6.57387 17.0816 6.26359C17.1175 6.1547 17.1872 5.81831 17.2888 5.7092C17.3157 5.6803 17.3007 5.78892 17.2927 5.82757C17.216 6.19632 17.0703 6.55188 16.9336 6.90085C15.872 9.61136 17.4345 5.6008 16.5923 7.75316C16.5698 7.81071 16.5422 7.86681 16.5272 7.92677C16.4942 8.05867 16.64 7.67933 16.6969 7.55586C16.7765 7.38312 16.9283 7.05901 17.0204 6.88507C17.0613 6.80784 17.2265 6.47484 17.1822 6.80812C17.0966 7.45302 16.8437 8.07037 16.6416 8.68438C16.4657 9.21913 16.8128 8.51122 16.8527 8.42001C16.9626 8.16914 17.0963 7.83964 17.198 7.5894C17.2903 7.36238 17.3779 7.02156 17.5216 6.81009C17.7033 6.5426 17.4226 7.45231 17.3203 7.75908C17.2251 8.04479 17.152 8.23254 17.05 8.51076C17.0069 8.62841 16.9093 8.98326 16.906 8.858C16.9041 8.78611 16.9445 8.44015 16.9455 8.43185C17.0127 7.86798 17.0879 7.30525 17.1526 6.74104C17.2181 6.17061 17.222 6.1074 17.2888 5.57109C17.2959 5.51372 17.314 5.08654 17.3677 4.97921C17.3944 4.9258 17.3528 5.09772 17.344 5.15677C17.2876 5.53432 17.2277 5.91121 17.1743 6.28924C17.1341 6.57453 17.0912 6.88701 17.0579 7.17509C17.0446 7.29028 16.9714 7.61409 17.0283 7.74526C17.0494 7.7939 17.1141 7.67773 17.1388 7.63083C17.2946 7.33563 17.412 7.01579 17.5275 6.70356C17.6235 6.44391 17.7082 6.19518 17.7997 5.93411C17.854 5.77935 17.9669 5.32347 17.999 5.48428C18.0993 5.98564 18.0017 6.61247 17.9674 7.1159C17.95 7.37289 17.9364 7.51026 17.9063 7.75118C17.9011 7.79271 17.8939 7.83397 17.8885 7.87548C17.8751 7.97992 17.923 7.66771 17.9398 7.56375C18.0531 6.86229 18.1651 6.1582 18.2141 5.44877C18.2655 4.7027 18.1632 8.4362 18.1134 7.69002C18.0667 6.98816 18.0553 6.28997 17.9635 5.59082C17.9484 5.47609 17.8866 5.07106 17.8609 4.92791C17.8545 4.89211 17.8544 4.85347 17.8372 4.82138C17.7985 4.7488 17.8293 4.98574 17.8293 5.06799C17.8293 5.43627 17.8293 5.80455 17.8293 6.17284C17.8293 6.55485 17.9341 5.82068 17.9477 5.76049C17.9754 5.63843 18.02 5.37357 18.0444 5.66185C18.068 5.94139 18.102 6.21784 18.149 6.49442C18.1549 6.52926 18.2053 6.79387 18.2101 6.78642C18.2502 6.72473 18.2882 6.55327 18.2969 6.51613C18.3798 6.16269 18.4308 5.80292 18.4883 5.44482C18.4913 5.42645 18.541 5.10585 18.5593 5.03445C18.5858 4.93113 18.5751 5.2474 18.5751 5.35407C18.5751 6.12483 18.5751 6.89559 18.5751 7.66635C18.5751 7.72862 18.5473 8.43944 18.6008 7.96229C18.6713 7.33269 18.7465 6.70232 18.8434 6.07616C18.8794 5.84399 18.9163 5.71078 18.95 6.03868C19.0078 6.60104 19.0184 7.16529 19.0447 7.72948C19.069 8.25183 19.1453 7.3407 19.1492 7.31122C19.2214 6.76714 19.2847 6.22262 19.3485 5.67763C19.3503 5.66239 19.3692 5.62313 19.3722 5.63817C19.4291 5.92255 19.4193 6.24085 19.4235 6.52599C19.439 7.58319 19.4274 8.64117 19.4274 9.69847C19.4274 9.81422 19.4164 9.93048 19.4274 10.0457C19.4461 10.2419 19.4522 9.65242 19.4649 9.4558C19.5021 8.87876 19.529 8.30376 19.534 7.72553C19.535 7.59747 19.4675 7.29431 19.5853 7.34476C19.674 7.38278 19.5984 8.2142 19.5971 8.26217C19.5839 8.75954 19.4748 10.2473 19.4748 9.74977C19.4748 9.55554 19.5114 9.36305 19.53 9.16972C19.6152 8.28516 19.6928 7.40005 19.7628 6.51415C19.7807 6.28788 19.7983 5.60935 19.8181 5.83546C19.8642 6.36315 19.8181 6.93021 19.8181 7.45722C19.8181 8.17931 19.8181 8.9014 19.8181 9.6235C19.8181 10.0499 19.8255 8.77019 19.8575 8.34504C19.8597 8.3165 19.8857 7.93041 19.9226 7.83799C20.0102 7.61908 19.9835 8.30659 19.9877 8.54233C19.9935 8.86708 19.9925 9.31699 19.9877 9.64323C19.9844 9.87407 19.9029 10.5547 19.9759 10.3357C20.0449 10.1287 20.0632 9.9081 20.1081 9.69452C20.2491 9.02281 20.4091 8.35674 20.5875 7.69397C20.6326 7.52627 20.7462 7.12795 20.8006 6.92847C20.8165 6.86998 20.8479 6.69226 20.8479 6.75288C20.8479 7.15207 20.8479 7.55126 20.8479 7.95045C20.8479 8.41343 20.8479 8.87641 20.8479 9.3394C20.8479 9.72214 20.8479 10.1049 20.8479 10.4876C20.8479 10.5911 20.8762 10.7575 20.84 10.8625C20.8253 10.9053 20.7518 11.0262 20.7473 10.9118C20.7298 10.4663 20.8094 10.0096 20.8598 9.56826C20.9244 9.00242 20.8232 9.74516 20.8065 9.8642C20.7297 10.4109 20.6451 10.9584 20.6072 11.5096C20.5865 11.8113 20.5069 12.0323 20.4139 12.3264C20.3084 12.6599 20.151 12.8463 19.8733 13.0722C19.7513 13.1714 19.6107 13.2809 19.4748 13.3602C19.454 13.3723 19.4629 13.3132 19.4629 13.2892C19.4629 12.9616 19.4689 12.6342 19.4787 12.3067C19.4994 11.6166 19.5712 10.9118 19.528 10.2213C19.5234 10.1473 19.4334 9.69232 19.4274 10.0378C19.42 10.4669 19.4181 10.8991 19.4294 11.3281C19.4304 11.3671 19.4339 11.4765 19.4531 11.4425C19.561 11.2515 19.5929 10.8926 19.6366 10.6968C19.7008 10.4081 19.7865 10.0096 19.8654 9.72214C19.9058 9.5749 20.0342 9.17219 20.0805 9.31769C20.1185 9.43718 20.1546 9.88445 20.1594 9.93325C20.2075 10.4228 20.2527 10.9127 20.2916 11.4031C20.2978 11.4822 20.3107 11.6565 20.3152 11.7582C20.319 11.8419 20.3031 11.5912 20.2975 11.5077C20.2937 11.4518 20.3072 11.047 20.1929 11.2689C20.1405 11.3708 20.0342 11.8424 19.9325 11.8805C19.8744 11.9023 19.9221 11.757 19.9187 11.6951C19.8976 11.3091 19.8583 10.9231 19.7865 10.5429C19.7735 10.4743 19.512 9.1914 19.3031 9.66493C19.1182 10.084 19.0727 10.5952 19.0368 11.048C18.9895 11.6442 19.0102 9.85188 18.9796 9.25456C18.9627 8.92703 18.9362 8.43523 18.9006 8.08658C18.895 8.03162 18.9239 7.94856 18.875 7.92283C18.8324 7.90039 18.8647 8.01871 18.8632 8.06685C18.8594 8.18715 18.8597 8.30754 18.8592 8.4279C18.8556 9.27491 18.8592 10.122 18.8592 10.969C18.8592 11.094 18.8592 11.1315 18.8592 11.0065C18.8592 10.6889 18.8574 10.3712 18.8513 10.0536C18.8466 9.80606 18.8368 9.42022 18.8237 9.16578C18.8195 9.08412 18.8145 9.00245 18.8059 8.92113C18.7922 8.78964 18.7854 8.79758 18.7586 8.92903C18.559 9.90778 18.478 10.9121 18.3384 11.9003C18.2637 12.4285 18.3043 11.5901 18.4094 11.5866C18.5114 11.5832 18.5416 11.7438 18.5909 11.8332C18.7332 12.0912 18.8498 12.3703 19.0092 12.6184C19.2173 12.9424 19.2653 12.013 19.2696 11.991C19.3326 11.6675 19.3981 11.3533 19.4708 11.0322C19.4907 10.9444 19.5105 10.8566 19.534 10.7698C19.5735 10.6235 19.5656 10.7255 19.5675 10.825C19.5704 10.9779 19.5695 11.4002 19.5695 11.5195C19.5695 11.5729 19.5124 12.1691 19.5931 12.2554C19.6161 12.2799 19.8441 11.7614 19.8615 11.7128C19.9197 11.5498 19.9404 12.0527 19.9443 12.0936C19.9674 12.336 19.9601 12.4261 19.9601 12.1094C19.9601 12.0372 20.0148 11.3936 19.8733 11.557C19.5931 11.8805 19.4763 12.3039 19.2242 12.6401C19.0646 12.853 18.8907 12.2812 18.8671 12.212C18.6939 11.703 18.5901 11.1726 18.4232 10.6613C18.3958 10.5774 18.3349 10.3924 18.2871 10.2943C18.2555 10.2295 18.2404 10.4318 18.2318 10.5034C18.1758 10.9736 18.1016 11.4417 18.0483 11.9121C18.0411 11.9758 18.0424 12.005 18.0424 11.9338C18.0424 11.5925 18.0424 11.2512 18.0424 10.9099C18.0424 10.0707 18.0424 9.23154 18.0424 8.39239C18.0424 8.37595 18.0424 8.32662 18.0424 8.34306C18.0424 8.58464 18.0285 8.82347 17.9951 9.06318C17.96 9.31466 17.9033 9.58794 17.853 9.83658C17.8178 10.0106 17.7441 10.5326 17.7327 10.3555C17.694 9.75553 17.8199 9.10769 17.8491 8.50682C17.8539 8.40683 17.8649 8.10683 17.8649 8.20693C17.8649 8.71818 17.8419 9.23102 17.8293 9.74187C17.8152 10.3185 17.8055 10.6859 17.7978 11.2492C17.7945 11.4902 17.7733 12.2047 17.8333 11.9713C17.8851 11.7698 17.9715 10.9906 17.9793 10.9177C18.0866 9.91779 18.1611 8.91447 18.2259 7.91099C18.2476 7.5744 18.2611 7.23728 18.2851 6.90085C18.3022 6.66168 18.2672 7.38037 18.2437 7.619C18.1507 8.56224 18.0193 9.513 17.8412 10.4442C17.8195 10.5575 17.8045 10.6656 17.7978 10.4896C17.7764 9.92752 17.7946 9.36099 17.7938 8.79881C17.7936 8.64338 17.7926 7.67811 17.7859 7.45722C17.7651 6.76874 17.6601 7.66079 17.6538 7.70186C17.4558 8.98656 17.3243 10.2901 17.0678 11.5649C16.9082 12.3581 17.0125 9.94727 17.0125 9.13816C17.0125 8.83564 17.0309 8.5323 17.0086 8.23061C16.98 7.84459 16.9653 9.0037 16.9573 9.39069C16.9458 9.94741 16.9433 10.4531 16.9415 11.0085C16.941 11.1657 16.9415 11.3229 16.9415 11.48C16.9415 11.5228 16.9415 11.651 16.9415 11.6083C16.9415 11.5254 16.9415 11.4425 16.9415 11.3597C16.9415 10.9631 16.9415 10.5666 16.9415 10.17C16.9415 9.96284 16.9423 9.75568 16.9415 9.54853C16.9409 9.39718 16.9801 8.95349 16.9257 9.09475C16.86 9.2656 16.8765 9.45754 16.8547 9.63928C16.8097 10.0138 16.7743 10.3907 16.7186 10.7639C16.6385 11.3001 16.6418 9.68219 16.5943 9.1421C16.5828 9.012 16.5601 8.62805 16.5312 8.75541C16.4543 9.09339 16.5046 9.52535 16.4976 9.86617C16.4806 10.6978 16.494 10.0093 16.4818 10.6553C16.4812 10.6889 16.4805 10.7895 16.4799 10.756C16.4756 10.5442 16.4799 10.3324 16.4799 10.1207C16.4799 9.7524 16.4799 9.38412 16.4799 9.01583C16.4799 8.45568 16.4803 8.81477 16.4759 9.06516C16.4679 9.52174 16.4601 9.82733 16.4424 10.2923C16.434 10.5115 16.4802 11.1076 16.3812 11.3518C16.3432 11.4456 16.3478 11.1521 16.3339 11.0519C16.2569 10.4968 16.1743 9.94268 16.0774 9.39069C16.0489 9.22859 16.0256 9.06524 15.9866 8.90535C15.9715 8.84342 15.9784 8.73886 15.9156 8.72779C15.8271 8.71216 15.7251 9.83216 15.7222 9.8563C15.6951 10.0824 15.6737 10.3093 15.6433 10.535C15.6218 10.6949 15.6559 10.2124 15.669 10.0516C15.6921 9.769 15.7132 9.53405 15.7479 9.25456C15.808 8.77044 15.7903 9.14956 15.7814 9.29994C15.7591 9.68022 15.7308 10.0601 15.7065 10.4403C15.6936 10.6409 15.681 10.8414 15.669 11.042C15.66 11.1913 15.6532 11.3407 15.6433 11.4899C15.6401 11.5393 15.6707 11.6653 15.6295 11.6379C15.584 11.6075 15.6224 11.5287 15.6197 11.4741C15.6112 11.3038 15.6064 11.1333 15.596 10.9631C15.5535 10.2673 15.49 9.57185 15.3908 8.88167C15.3759 8.77777 15.3281 8.47482 15.3079 8.57784C15.2247 9.00298 15.2312 9.46777 15.1817 9.89774C15.1649 10.0434 15.1129 10.4978 15.0672 10.6889C15.0611 10.7146 15.0448 10.7829 15.0317 10.7599C14.944 10.6049 14.9959 10.4052 14.9883 10.2272C14.9765 9.9517 14.9688 9.59754 14.9607 9.31967C14.9583 9.23745 14.9573 9.15517 14.9528 9.07305C14.9503 9.02736 14.9368 9.16345 14.935 9.20918C14.9156 9.71523 14.9173 11.2348 14.9173 10.7283C14.9173 9.96218 14.9173 9.19603 14.9173 8.42987C14.9173 8.35424 14.9173 8.27861 14.9173 8.20299C14.9173 8.18391 14.9173 8.24113 14.9173 8.2602C14.9173 8.74752 14.9173 9.23483 14.9173 9.72214C14.9173 9.98652 14.919 10.2509 14.9173 10.5153C14.9157 10.7613 14.9039 10.0233 14.8936 9.77739C14.8775 9.39055 14.865 9.15 14.8285 8.77316C14.8141 8.62504 14.7594 8.19873 14.7161 8.34109C14.6183 8.66185 14.582 8.99823 14.5188 9.32756C14.3762 10.0706 14.2332 10.8135 14.0926 11.557C14.0769 11.6399 14.0659 11.7238 14.0453 11.8056C14.0403 11.8253 14.0435 11.7647 14.0453 11.7444C14.0964 11.1562 14.2071 10.565 14.3372 9.99046C14.4619 9.4405 14.6384 8.77911 14.8265 8.24244C14.888 8.06715 14.9573 7.89403 15.0396 7.72751C15.1593 7.48541 15.2178 7.44328 15.2132 7.74329C15.208 8.08742 15.0849 8.92881 15.0495 9.18748C14.9446 9.95301 14.834 10.7183 14.7161 11.482C14.7043 11.5583 14.6695 11.7836 14.6608 11.7069C14.6049 11.2109 14.6302 10.6907 14.6056 10.1937C14.5818 9.71453 14.5595 9.28571 14.4892 8.81459C14.4169 8.33105 14.3437 8.37735 14.2504 8.81459C14.0722 9.65036 13.9686 10.4998 13.8282 11.3419C13.8089 11.4578 13.8489 11.1079 13.8578 10.9907C13.9078 10.3385 13.9452 9.68525 13.9703 9.03162C13.9813 8.74505 14.0112 8.4571 13.9861 8.17142C13.9527 7.79252 13.8863 8.92566 13.846 9.30388C13.7746 9.97313 13.6131 11.9814 13.6033 11.3084C13.5898 10.3723 13.6033 9.43511 13.6033 8.49893C13.6033 8.43711 13.6033 8.37529 13.6033 8.31347C13.6033 8.27204 13.6033 8.39633 13.6033 8.43776C13.6033 9.04214 13.6033 9.64652 13.6033 10.2509C13.6033 10.56 13.6033 10.8691 13.6033 11.1782C13.6033 11.6234 13.6033 10.2877 13.6033 9.84249C13.6033 9.27495 13.6033 8.7074 13.6033 8.13985C13.6033 7.93714 13.6239 7.33438 13.5796 7.53219C13.4529 8.09784 13.4111 8.68398 13.3094 9.25456C13.3002 9.30578 13.2585 9.4524 13.2541 9.40056C13.2447 9.28896 13.2482 8.74921 13.2482 8.72581C13.2482 8.51927 13.2522 8.04292 13.2383 7.82024C13.2061 7.30214 13.0693 7.86726 13.0312 8.00569C12.9647 8.24706 12.7834 9.0197 12.7313 9.24075C12.6856 9.43468 12.6402 9.62868 12.5951 9.82276C12.5559 9.99213 12.5327 10.488 12.4649 10.3278C12.4385 10.2654 12.4587 10.1924 12.459 10.1246C12.46 9.93848 12.4656 9.7524 12.4689 9.56628C12.4833 8.74574 12.4959 7.92501 12.5537 7.10603C12.5598 7.02014 12.6089 6.42589 12.6484 6.25373C12.7023 6.01885 12.7107 6.73179 12.7313 6.97187C12.7784 7.52158 12.8202 7.88988 12.895 8.44368C12.9258 8.67162 12.9589 8.89927 12.9957 9.12632C13.0187 9.26893 13.0437 9.41134 13.0746 9.55247C13.0872 9.6102 13.0691 9.7056 13.1259 9.72214C13.1734 9.73601 13.16 9.62872 13.1693 9.58009C13.1955 9.44289 13.2123 9.30402 13.2324 9.16578C13.3416 8.41467 13.4466 7.66337 13.5717 6.91466C13.6005 6.74275 13.6234 6.56958 13.6625 6.39972C13.673 6.35411 13.692 6.23377 13.7197 6.27148C13.7722 6.34282 13.7535 6.44566 13.7612 6.53388C13.7823 6.77697 13.8204 7.67348 13.8282 7.88337C13.8431 8.28149 13.8467 8.47796 13.8519 8.84616C13.8551 9.07041 13.8501 8.39758 13.844 8.17339C13.8325 7.75118 13.8195 7.33652 13.771 6.91663C13.7438 6.68098 13.7051 6.14364 13.4376 6.59307C13.3969 6.66149 12.9335 7.60922 12.9286 7.619C12.8512 7.77355 12.5486 8.59827 12.3209 8.68241C12.1944 8.72917 12.246 8.42062 12.24 8.28585C12.2166 7.75797 12.2171 7.22782 12.2262 6.69961C12.2317 6.37746 12.2004 6.07433 12.3801 5.80192C12.4148 5.74937 12.5379 5.43846 12.5379 5.65001C12.5379 5.91083 12.509 6.17271 12.4531 6.42734C12.4176 6.58906 12.3573 6.44172 12.317 6.35237C12.0231 5.70095 11.6281 5.10043 11.3305 4.45046C11.0595 3.8586 10.6411 3.50429 10.0915 3.17989C9.87721 3.05341 9.68904 2.93704 9.51145 2.76558C9.41176 2.66932 9.24247 2.63574 9.16421 2.53277C8.94311 2.24185 8.54591 2.26255 8.22904 2.22499C7.5904 2.1493 6.96715 1.99219 6.32319 1.99219C5.79812 1.99219 5.31886 2.00675 4.80403 2.0711C4.55088 2.10275 4.39615 2.26141 4.18453 2.38283C3.9297 2.52904 3.69179 2.68781 3.46243 2.87212C3.28507 3.01464 3.09592 3.15198 2.91396 3.29038C2.64892 3.49196 2.54511 3.71839 2.38916 4.00853C2.27529 4.22038 2.18121 4.44292 2.05376 4.64776C2.00542 4.72545 1.93768 4.76667 1.86633 4.8194C1.76204 4.89649 1.7089 5.02887 1.64339 5.13705C1.33069 5.65336 1.31019 6.37817 1.23696 6.96398C1.11562 7.93471 1.13832 8.90316 1.13832 9.88393C1.13832 10.0347 1.10644 10.2284 1.16002 10.3712C1.25492 10.6243 1.43036 10.8466 1.54671 11.0894C1.68002 11.3676 1.77697 11.6813 1.82884 11.9851C1.85694 12.1497 1.86282 12.2799 1.93933 12.433C1.95435 12.463 2.09193 12.6925 2.09519 12.6697C2.12158 12.485 1.96298 12.2878 1.89395 12.1232C1.764 11.8133 1.55059 11.5469 1.42439 11.2314C1.33859 11.0169 1.31588 10.831 1.31588 10.6001C1.31588 9.83327 1.32333 9.06759 1.35337 8.30163C1.36714 7.95037 1.52373 7.62222 1.61577 7.28754C1.70965 6.94614 1.73399 6.59526 1.7953 6.24781C1.82758 6.06488 1.88048 5.87883 1.92157 5.69736C1.99577 5.36964 2.09624 5.20047 2.27867 4.93383C2.55454 4.53065 2.79876 3.89469 3.23752 3.64156C3.66215 3.39658 4.06935 3.13685 4.51203 2.92341C5.13045 2.62525 5.95763 2.86245 6.60729 2.88001C7.33731 2.89974 8.0377 3.0376 8.69466 3.38508C9.54067 3.83256 10.3959 4.31353 11.1293 4.93186C11.4447 5.19779 11.8044 5.68427 11.8553 6.10378C11.8651 6.18464 11.9117 6.7418 11.7448 6.52205C10.9904 5.52841 10.2569 4.51291 9.43253 3.57448C9.09929 3.19513 8.77504 2.76037 8.28823 2.57618C7.59914 2.31544 6.93963 2.30827 6.33108 2.73796C5.84948 3.07801 5.41011 3.47402 4.93227 3.81912C4.52346 4.11438 4.09942 4.37967 3.71102 4.703C2.94509 5.34061 2.33408 6.08521 2.0577 7.06263C2.04416 7.11054 1.9937 7.2464 2.02614 7.20863C2.55296 6.59511 3.02578 5.82616 3.49005 5.17848C3.576 5.05857 4.49072 3.81258 4.67579 3.45413C4.69271 3.42136 4.68963 3.33575 4.65409 3.34562C4.39926 3.41641 4.21342 3.63823 3.99513 3.78756C3.66084 4.01623 3.27036 4.23908 3.00077 4.54911C2.78123 4.80157 2.72342 5.14481 2.64564 5.45863C2.57803 5.7314 2.3883 6.16079 2.45229 6.44707C2.48353 6.58684 3.64139 5.62519 3.7051 5.57306C4.51517 4.91028 5.44774 4.41832 6.31332 3.83096C6.51127 3.69664 6.69786 3.62021 6.91901 3.53897C6.95823 3.52456 7.25427 3.36161 7.21693 3.48964C7.07778 3.96673 6.71927 4.4569 6.45735 4.87267C6.12019 5.40788 5.78462 5.9286 5.48469 6.48653C5.42573 6.59621 4.7195 7.80472 5.18678 7.05079C5.75314 6.137 6.33678 5.24206 7.00582 4.39917C7.01345 4.38956 7.38797 3.84918 7.48722 3.88226C7.53465 3.89807 7.49989 3.98297 7.49117 4.0322C7.38927 4.60698 7.21739 5.17966 7.05712 5.73879C6.83476 6.51449 6.71468 6.88787 6.4751 7.65451C6.32864 8.1232 6.14117 8.61316 6.04303 9.0987C5.90519 9.78066 6.41277 7.75613 6.55205 7.07447C6.74587 6.12588 6.88242 5.16851 7.06107 4.21766C7.06821 4.17964 7.0952 4.06851 7.09658 4.10717C7.10849 4.44072 6.98344 4.90468 6.93085 5.20412C6.60676 7.04966 6.28283 8.88663 6.1693 10.7599C6.16038 10.9071 6.15748 11.0545 6.15154 11.2018C6.14958 11.2505 6.09942 11.3324 6.14562 11.3478C6.19029 11.3627 6.16406 11.2555 6.17522 11.2097C6.27161 10.8145 6.32932 10.6309 6.4534 10.1897C6.92396 8.51665 7.31569 6.83902 7.64505 5.1331C7.86785 3.97911 7.41059 7.47212 7.2702 8.639C7.19456 9.26771 7.10218 10.0245 7.01963 10.6672C7.0153 10.7009 6.88983 11.705 6.94269 10.8033C7.04806 9.00583 7.50588 7.27212 7.80684 5.50401C7.83895 5.31532 7.85912 5.12475 7.8897 4.93581C7.89597 4.89707 7.90459 4.78426 7.91732 4.82138C7.9447 4.90125 7.9336 4.98955 7.93705 5.07391C7.95366 5.48003 7.97269 6.57434 7.97651 6.87717C7.99873 8.63823 7.99229 10.3995 7.99229 12.1607C7.99229 12.3588 8.00088 11.7646 8.01202 11.5668C8.07125 10.5154 8.18599 9.46889 8.27639 8.42001C8.35469 7.51155 8.33231 7.74405 8.37504 7.00344C8.39675 6.62723 8.38293 7.75709 8.38293 8.13393C8.38293 8.98558 8.38293 9.83723 8.38293 10.6889C8.38293 11.0743 8.38252 11.4596 8.38293 11.845C8.38318 12.0818 8.38302 12.3185 8.38491 12.5553C8.38565 12.6487 8.33478 12.7607 8.39082 12.8354C8.4392 12.8999 8.40808 12.6751 8.4145 12.5947C8.43308 12.362 8.44821 12.1291 8.4658 11.8963C8.56233 10.6185 8.66434 9.34129 8.79922 8.06685C8.83107 7.76598 8.85271 7.46344 8.90379 7.16522C8.91816 7.08131 8.93896 6.86202 8.99454 6.9265C9.09892 7.04757 9.07876 7.23579 9.10108 7.39408C9.19959 8.09259 9.31742 9.57364 9.36151 10.2075C10.7651 30.3877 8.68657 0.742356 9.47594 12.4251C9.54111 13.3896 9.48439 10.4916 9.48186 9.52485C9.4801 8.85469 9.51451 8.18284 9.46607 7.51443C9.39501 6.53376 9.44397 9.48079 9.43253 10.464C9.42306 11.2782 9.40191 12.0922 9.39307 12.9065C9.39155 13.0465 9.37399 13.1885 9.39702 13.3267C9.444 13.6086 9.50279 12.7649 9.54499 12.4823C9.67949 11.5816 9.7337 11.2178 9.88236 10.3002C9.93493 9.97577 9.9861 9.65107 10.0441 9.32756C10.0785 9.13621 10.177 8.57501 10.2059 8.76724C10.2771 9.24075 10.2282 9.72471 10.2296 10.2035C10.2307 10.5751 10.2296 10.9467 10.2296 11.3182C10.2296 11.799 10.1463 12.29 10.2454 12.7605C10.313 13.0815 10.3487 12.1122 10.3815 11.7858C10.4846 10.7613 10.5443 9.73189 10.6518 8.70806C10.7878 7.41294 10.6681 11.3126 10.7011 12.6145C10.7056 12.7922 10.6847 12.9754 10.7307 13.1472C10.7451 13.2009 10.7917 13.0515 10.8037 12.9972C11.0211 12.0125 11.0888 10.9873 11.2318 9.99046C11.271 9.71748 11.3476 8.91193 11.4055 9.18156C11.4418 9.35085 11.4253 9.52734 11.4291 9.70044C11.4385 10.125 11.4377 11.268 11.441 11.6596C11.4433 11.9305 11.4431 12.2016 11.4528 12.4724C11.4556 12.5485 11.4489 12.7694 11.4785 12.6993C11.5275 12.583 11.5093 12.4485 11.516 12.3225C11.5477 11.7215 11.5572 10.9747 11.5436 10.3811C11.5312 9.84248 11.5002 9.34182 11.441 8.81065C11.4276 8.69099 11.4161 8.448 11.3344 8.32728C10.8054 7.54517 10.3322 6.62627 9.59629 6.01303C9.20886 5.69017 8.72523 5.46936 8.37109 5.10942C8.13857 4.87309 7.84551 4.3514 7.92521 3.99274C7.93782 3.93603 8.46296 4.43771 8.48947 4.4623C8.83375 4.78167 9.17599 5.0721 9.43451 5.4685C9.62588 5.76193 9.80713 6.18536 10.0836 6.41156C10.1174 6.43925 10.0834 6.32219 10.0678 6.28135C9.90701 5.86028 9.67529 5.46184 9.4207 5.09167C9.22817 4.81173 9.05301 4.57545 8.79133 4.36168C8.69518 4.28314 8.31202 4.02144 8.15013 4.09139C8.04316 4.13761 8.23734 4.31307 8.31585 4.39917C8.76406 4.8907 9.26861 5.33751 9.74031 5.80587C10.3896 6.45057 11.0993 7.09711 11.5475 7.90704C11.7571 8.28578 11.8959 8.69746 12.0486 9.10067C12.0635 9.13976 12.0999 9.2569 12.0999 9.2151C12.0999 9.05472 11.9609 8.76063 11.9105 8.63703C11.5258 7.69259 11.0182 6.80419 10.4644 5.94989C10.4191 5.87998 10.2283 5.5842 10.1388 5.47639C10.0713 5.39505 10.1838 5.68498 10.2296 5.78022C10.6569 6.66792 11.1749 7.51002 11.5929 8.40225C11.6722 8.57164 11.6453 8.52626 11.5613 8.42198C11.3441 8.15209 11.0965 7.78477 10.7741 7.63083C10.5358 7.51702 10.4337 7.6371 10.3401 7.84786C10.3282 7.87462 10.0905 8.76399 10.0777 8.75146C9.88353 8.56216 9.65501 6.296 9.39307 6.36421C9.30678 6.38668 9.33946 6.53579 9.33191 6.62464C9.31567 6.81601 9.32055 7.00868 9.32205 7.20073C9.32384 7.43034 9.33447 7.65979 9.34178 7.88929C9.34762 8.0728 9.36151 8.25614 9.36151 8.43974C9.36151 8.49864 9.39052 8.6484 9.34178 8.61533C9.26827 8.56545 9.27806 8.44938 9.25102 8.36477C9.18136 8.14678 9.12342 7.92512 9.05176 7.70778C8.8973 7.23935 8.71156 6.68157 8.46382 6.24583C7.93238 5.3111 7.92018 6.76695 8.04359 6.85744C8.07549 6.88084 8.13434 5.5115 8.13434 6.16494C8.13434 6.36678 8.13638 6.79524 8.12842 6.9995C8.12585 7.06548 8.15867 7.15145 8.11067 7.19679C8.07657 7.22899 8.07078 7.11152 8.0574 7.06658C8.01939 6.93892 7.99209 6.8083 7.95678 6.67988C7.93396 6.5969 7.73849 5.87651 7.66478 5.76838C7.38814 5.36252 7.20312 6.64661 7.08671 7.12379C6.94678 7.6974 6.84229 8.27962 6.69015 8.85011C6.67742 8.89786 6.63483 9.03307 6.62702 8.98427C6.55925 8.56071 6.64864 8.12664 6.66253 7.69791C6.6685 7.51389 6.70119 6.55404 6.69805 6.28135C6.69764 6.246 6.68978 6.14273 6.68029 6.17678C6.58641 6.51364 6.59126 6.87057 6.55599 7.21849C6.4706 8.06092 6.50419 7.76121 6.44354 8.46736C6.43958 8.51345 6.43771 8.65103 6.42973 8.60546C6.37097 8.27021 6.38952 7.92558 6.35081 7.58743C6.3114 7.24313 6.19278 6.31046 6.06671 5.95384C6.03102 5.8529 5.97839 5.67656 5.87336 5.69736C5.74479 5.72282 5.71106 5.90891 5.66817 6.03276C5.5748 6.30241 5.52741 6.58603 5.46891 6.86534C5.32607 7.54725 5.30991 7.76496 5.20454 8.39041C5.19772 8.43086 5.17757 8.55176 5.17889 8.51076C5.19186 8.10605 5.24423 7.70351 5.26964 7.29938C5.30105 6.79987 5.31223 6.29913 5.34856 5.79995C5.38801 5.2579 5.38926 6.88621 5.39986 7.42959C5.40993 7.94654 5.40409 8.46422 5.43537 8.98032C5.46714 9.50448 5.4817 7.93097 5.49061 7.40592C5.49763 6.99198 5.50639 6.21668 5.50639 5.76838C5.50639 5.69209 5.57647 5.55803 5.50245 5.53952C5.42961 5.52132 5.49357 5.68942 5.49061 5.76444C5.48304 5.95643 5.47728 6.1485 5.47088 6.34054C5.46041 6.65473 5.38376 6.97887 5.46102 7.2836C5.46777 7.31023 5.5132 7.25432 5.52218 7.22836C5.60537 6.98781 5.75279 6.23591 5.78655 6.05643C5.87666 5.57739 5.9164 5.28505 5.99174 4.82532C6.03393 4.56787 5.90889 5.34056 5.85955 5.59674C5.81007 5.85366 5.8088 6.13124 5.68593 6.36224C5.67474 6.38328 5.65857 6.32086 5.65634 6.29713C5.63293 6.04827 5.65112 5.79715 5.64055 5.54742C5.6359 5.4374 5.63468 5.3266 5.61688 5.21794C5.60944 5.1725 5.61035 5.07895 5.56558 5.08969C5.38649 5.13268 5.2044 6.1167 5.18283 6.20046C5.05746 6.6874 5.08203 6.61957 4.9954 7.02909C4.98883 7.06015 4.97944 7.15304 4.9737 7.12182C4.93638 6.91865 4.98393 6.70881 4.98949 6.50232C4.99209 6.40557 5.01882 5.48335 5.01316 5.36196C5.01102 5.31603 4.99343 5.18824 4.9737 5.22977C4.7597 5.6803 4.76702 6.20628 4.69354 6.69961C4.50663 7.95462 4.56622 7.66945 4.43706 8.76724C4.42883 8.83726 4.41302 9.04647 4.4055 8.97638C4.35046 8.46367 4.39552 7.94507 4.38182 7.42959C4.37348 7.11581 4.36534 6.80194 4.34828 6.48851C4.34035 6.34273 4.38691 6.17457 4.30685 6.05249C4.24874 5.96388 4.2752 6.26235 4.26936 6.36816C4.24301 6.84585 4.23614 7.7125 4.23188 8.16945C4.22901 8.47656 4.27069 9.39437 4.22399 9.09081C4.13862 8.5359 4.19722 7.94616 4.14112 7.38619C4.12874 7.26258 4.15119 7.11813 4.07602 7.01922C4.03776 6.96888 4.003 7.12678 3.99118 7.1889C3.81552 8.11208 3.81282 9.08637 3.78008 10.022C3.77068 10.2905 3.76791 10.8765 3.76429 10.4699C3.75569 9.50252 3.75304 8.53472 3.72286 7.5677C3.71824 7.41962 3.68381 6.97784 3.67551 7.12576C3.64098 7.74127 3.65973 8.36216 3.65973 8.97835C3.65973 9.27718 3.66073 8.91151 3.64592 8.61533C3.63522 8.40142 3.63237 8.18648 3.60449 7.97412C3.58121 7.79686 3.54022 7.41572 3.39535 7.80051C3.30417 8.04273 3.22113 8.55851 3.16255 8.81065C3.14913 8.86839 3.14302 9.02906 3.10928 8.98032C3.05751 8.90554 3.09355 8.79898 3.09152 8.70806C3.08763 8.53382 3.09152 8.3595 3.09152 8.18523C3.09152 8.06751 3.09152 7.94979 3.09152 7.83207C3.09152 7.80577 3.09152 7.88468 3.09152 7.91099C3.09152 8.03594 3.08834 8.16094 3.09152 8.28585C3.09915 8.5854 3.10041 8.62455 3.15466 8.32136C3.25215 7.77641 3.26948 7.48596 3.42298 6.94031C3.48657 6.71423 3.78648 6.09605 3.77613 6.33067C3.76768 6.52222 3.67967 6.70181 3.63013 6.88704C3.6005 6.99783 3.57668 7.11016 3.5453 7.22046C3.50662 7.35639 3.49007 7.43149 3.47427 7.25598C3.45298 7.01945 3.46597 5.9618 3.21384 6.75485C3.13989 6.98748 3.10213 7.23112 3.0205 7.46116C3.01205 7.48497 2.98278 7.54371 2.97315 7.52035C2.90487 7.35483 2.95349 7.16272 2.94947 6.98371C2.93631 6.39825 2.85593 7.46898 2.84885 7.57757C2.83451 7.79739 2.83767 7.61378 2.79164 7.82813C2.78 7.8823 2.67814 8.51943 2.71075 8.22271C2.73624 7.99071 2.76128 7.80714 2.79164 7.5677C2.82588 7.29754 2.87229 6.48858 2.90607 6.7588C2.9343 6.98465 2.90024 7.21404 2.89028 7.44143C2.86931 7.92026 2.84293 8.39934 2.81334 8.87773C2.79727 9.13747 2.77576 7.86585 2.68115 8.10828C2.62894 8.24207 2.6109 8.91248 2.61013 8.93692C2.59896 9.29188 2.61999 10.3574 2.61999 10.0023C2.61999 9.68868 2.58791 9.19325 2.56869 8.92113C2.55233 8.68944 2.53509 8.45773 2.51148 8.22666C2.50348 8.14832 2.44263 7.60904 2.44835 8.12801C2.45319 8.56776 2.4968 9.2213 2.55094 9.64323C2.57941 9.86511 2.61433 10.0868 2.66734 10.3042C2.66742 10.3045 2.80766 10.8929 2.86266 10.4659C2.90225 10.1587 2.84596 9.58532 2.81728 9.30783C2.79928 9.13362 2.77937 8.95932 2.74823 8.78697C2.74104 8.7472 2.71407 8.63568 2.70285 8.67452C2.67602 8.76741 2.69485 8.86787 2.69694 8.96454C2.70045 9.1272 2.73545 9.80472 2.74823 9.98257C2.75307 10.0499 2.73251 10.1277 2.76993 10.1838C2.7964 10.2235 2.78479 10.0894 2.78769 10.0418C2.79664 9.8946 2.80067 9.74718 2.80545 9.59982C2.81707 9.24105 2.82333 8.98356 2.82123 8.63111C2.82078 8.55546 2.81632 8.47987 2.81531 8.40422C2.81341 8.2618 2.83415 8.68851 2.84688 8.83038C2.8663 9.04695 2.92383 9.64116 2.95342 9.8642C2.99607 10.1858 3.03254 10.2697 3.09547 9.90563C3.14594 9.61362 3.17233 9.36469 3.20793 9.0691C3.25946 8.64114 3.26761 8.65953 3.30065 9.10264C3.31227 9.25838 3.36139 10.0188 3.37168 10.1878C3.3768 10.2719 3.37988 10.3562 3.38549 10.4403C3.39525 10.5866 3.37898 10.147 3.3776 10.0003C3.37504 9.72878 3.37562 9.3809 3.37562 9.10659C3.37562 8.43146 3.37562 9.10156 3.37562 9.11054C3.37562 9.39069 3.37735 9.67085 3.37562 9.951C3.37238 10.4778 3.33889 9.93768 3.3263 9.82276C3.24187 9.0523 3.13983 8.28342 3.02839 7.5164C2.99735 7.30281 2.89566 7.92884 2.86069 8.14182C2.77951 8.63626 2.81584 8.44971 2.74626 8.89154C2.67918 9.31748 2.67581 8.77384 2.66931 8.70411C2.65777 8.58023 2.58203 7.08236 2.43059 7.08236C2.25086 7.08236 2.06009 8.1995 2.04192 8.29374C1.87101 9.18045 1.77628 10.1094 2.08927 10.9769C2.29254 11.5403 2.73575 11.9892 3.07179 12.4764C3.51424 13.1177 4.14078 13.4436 4.75668 13.889C5.49237 14.4209 6.25145 14.913 6.97426 15.4634C7.9312 16.1921 8.94842 16.7936 9.97312 17.4126C10.5731 17.7752 11.0332 18.3165 11.5455 18.7838C12.148 19.3333 13.2343 18.9062 13.7671 18.4445C14.2461 18.0294 14.5829 17.4648 14.9489 16.9549C15.2644 16.5152 15.6807 16.2023 16.0715 15.8343C16.7406 15.2042 17.5195 14.7264 18.218 14.1277C18.3514 14.0133 18.4668 13.8917 18.6027 13.7824C18.6666 13.7311 19.056 13.4138 18.7842 13.4056C18.119 13.3855 17.3739 13.7678 16.7876 14.0192C16.2585 14.2461 15.8043 14.4596 15.2882 14.7137C15.1048 14.804 14.9247 14.9008 14.7417 14.9919C14.6445 15.0402 14.5548 15.114 14.4477 15.1319C14.4139 15.1376 14.4617 15.062 14.4832 15.0353C14.6208 14.8641 15.1419 14.3564 15.2487 14.25C15.375 14.1244 15.4989 13.9963 15.6275 13.8732C15.8257 13.6835 15.7514 13.7666 15.671 13.9127C15.6038 14.0346 15.3764 14.273 15.5131 14.2994C15.5849 14.3132 15.6452 14.2342 15.7025 14.1889C15.8451 14.0763 16.5733 13.4043 16.6495 13.3366C16.7974 13.2053 16.9382 13.0645 17.0994 12.9499C17.1465 12.9163 17.2531 12.842 17.2651 12.8986C17.288 13.0064 17.1991 13.1094 17.1546 13.2103C17.0068 13.545 16.8278 13.8651 16.6732 14.1968C16.435 14.7078 17.174 13.1789 17.5137 12.7289C17.5535 12.6761 17.4909 12.86 17.492 12.9262C17.4925 12.9577 17.498 13.014 17.5295 13.013C17.631 13.0098 17.8664 12.7212 17.8846 12.7013C17.9332 12.648 18.0732 12.4975 18.0543 12.5671C17.9834 12.8277 17.8447 13.0761 17.7445 13.3267C17.6106 13.6615 18.2463 11.9748 18.1371 12.3185C18.0945 12.4525 18.059 12.5889 18.0109 12.721C18.0003 12.75 17.9989 12.813 17.9694 12.8039C17.8688 12.7729 17.9653 12.5934 17.9674 12.4882C17.9775 11.9864 17.8467 12.8931 17.9201 13.0051C17.9627 13.0701 18.0607 12.342 18.1371 12.5967C18.2581 13.0001 18.289 12.5615 18.4844 12.5671C18.5497 12.569 18.5558 12.6814 18.6106 12.7171C18.6746 12.7587 18.8612 12.6716 18.8316 12.5947C18.8065 12.5295 18.7016 12.6468 18.6343 12.6658C18.3686 12.7407 18.3229 12.5891 18.2042 12.3817C17.8035 11.6812 17.556 12.6926 17.269 12.9617C17.1759 13.049 17.1833 12.7144 17.1901 12.5868C17.1984 12.4313 17.2262 12.277 17.2296 12.1212C17.2342 11.907 17.2535 11.6981 17.0362 11.9713C16.9002 12.1423 16.509 12.8206 16.397 12.9893C16.3442 13.0689 16.314 13.2007 16.2194 13.2142C16.1529 13.2237 16.2166 13.0786 16.2313 13.013C16.2688 12.8459 16.3252 12.6836 16.3753 12.5198C16.8137 11.086 16.3975 12.6053 16.2865 12.575C16.2257 12.5584 16.2986 12.4492 16.3122 12.3876C16.346 12.2345 16.3899 12.0838 16.4286 11.9318C16.4662 11.7839 16.5083 11.637 16.541 11.4879C16.6081 11.1819 16.5378 11.3534 16.4562 11.5353C16.3094 11.8622 16.2245 12.1065 16.0616 12.427C15.9496 12.6474 15.8389 12.8438 15.7893 12.5158C15.7602 12.3235 15.7916 11.8373 15.5427 12.1627C15.5197 12.1928 15.4447 12.2636 15.448 12.2258C15.4738 11.9335 15.5703 11.6091 15.6749 11.336C15.7005 11.2691 15.5505 12.0367 15.5743 11.8075C15.5863 11.6918 15.6341 11.4494 15.6394 11.336C15.6409 11.304 15.6504 11.2238 15.6236 11.2413C15.4583 11.3496 15.4409 11.5923 15.3632 11.774C15.267 11.9988 15.1141 12.2129 15.0949 12.4566C15.0927 12.4837 15.1504 12.4902 15.1738 12.4764C15.4627 12.3054 15.6821 12.0339 15.9649 11.8529C16.0943 11.7701 16.5427 11.401 16.614 11.8509C16.6482 12.0669 16.5912 12.289 16.5509 12.504C16.5076 12.7353 16.2021 13.8473 16.1208 14.1178C15.9951 14.5359 16.0162 14.455 16.03 14.1849C16.0362 14.0639 16.235 12.8433 15.74 13.0169C15.4227 13.1283 14.9844 13.803 14.8502 13.9995C14.7236 14.1848 14.6091 14.3782 14.4951 14.5716C14.4551 14.6395 14.3328 14.727 14.3885 14.7827C14.4435 14.8377 14.4663 14.648 14.503 14.5795C14.6388 14.3258 14.7141 14.0293 14.9094 13.818C14.9359 13.7893 14.9306 13.896 14.9232 13.9344C14.8832 14.1414 14.5595 15.3083 14.5385 15.3884C14.478 15.6192 14.4103 15.8486 14.3649 16.0829C14.3535 16.1416 14.3219 16.2996 14.3688 16.2624C14.4676 16.1842 14.4926 16.0429 14.5543 15.9329C14.6536 15.7559 14.8847 15.2633 14.937 15.4594C14.9618 15.5525 14.8811 16.2994 14.9212 16.3946C15.0011 16.5838 15.6934 15.4151 15.7262 15.3726C16.0914 14.8998 15.5647 16.4313 15.9314 15.3529C15.9525 15.2908 16.14 14.7349 16.1958 14.615C16.3082 14.3732 16.0749 15.1346 16.0064 15.3924C15.9055 15.7716 15.9307 15.7172 15.957 15.566C16.0348 15.1194 16.0905 14.6761 16.1247 14.2244C16.1384 14.0433 16.1214 14.5887 16.1445 14.7689C16.1662 14.9391 16.186 15.1122 16.2431 15.274C16.3257 15.5078 16.427 15.5937 16.5469 15.345C16.5903 15.2551 16.6377 15.15 16.614 15.053C16.6019 15.0034 16.5081 14.9846 16.466 15.0136C16.2995 15.1284 16.1748 15.2951 16.0419 15.4476C15.92 15.5874 14.9266 16.8317 14.7792 16.9865C14.461 17.3207 14.3682 17.3462 14.4517 16.8721C14.498 16.6089 14.5854 16.3547 14.6549 16.0967C14.7235 15.8417 14.7974 15.5882 14.866 15.3332C14.8961 15.2212 14.9652 15.1109 14.9508 14.9958C14.94 14.9094 14.8831 15.1564 14.8542 15.2385C14.7667 15.4866 14.6844 15.7365 14.6016 15.9862C14.4537 16.4321 14.0454 17.7782 14.14 17.3179C14.2352 16.8545 14.3664 16.3991 14.4675 15.9369C14.6877 14.9293 14.3632 15.7147 14.1932 16.0947C14.1521 16.1867 13.7145 17.2277 13.5935 17.4126C13.3771 17.7431 13.5931 16.6202 13.6467 16.2289C13.667 16.0807 13.7091 15.9322 13.698 15.783C13.6953 15.7468 13.6335 15.8247 13.6191 15.858C13.5368 16.0474 13.4783 16.2464 13.4119 16.442C13.2912 16.7978 13.2433 17.1848 13.0608 17.5133C12.8689 17.8586 13.2777 16.7535 13.3902 16.3749C13.4857 16.0538 13.5804 15.7324 13.6783 15.4121C13.7436 15.1983 13.9324 14.5651 13.7769 15.1872C13.6148 15.8356 13.4425 16.4813 13.2758 17.1285C13.2229 17.3338 13.0495 18.2504 13.116 17.4935C13.1231 17.4126 13.1205 17.1746 13.0923 17.2509C13.0486 17.369 13.0228 17.4929 12.9878 17.6139C12.9848 17.6243 12.8125 18.2851 12.7313 18.3715C12.6294 18.48 12.6547 18.082 12.6445 17.9335C12.6206 17.5888 12.597 17.3564 12.4117 17.8349C12.361 17.9656 12.3218 18.1004 12.2775 18.2334C12.2554 18.2997 12.2591 18.3807 12.2124 18.4326C12.1762 18.4729 12.2288 18.3254 12.242 18.2728C12.3611 17.7978 12.4898 17.3688 12.6484 16.8997C12.7055 16.7309 13.0091 15.8779 13.1338 15.6212C13.3208 15.2361 12.9062 16.447 12.8102 16.8642C12.7149 17.2783 12.7198 17.3639 12.9266 16.9017C13.3994 15.8446 13.7902 14.7473 14.2189 13.672C14.4174 13.1739 14.4559 13.0924 14.2978 13.4628C14.2012 13.6891 14.1051 13.9156 14.0078 14.1415C13.9091 14.3707 13.8133 14.6011 13.7099 14.8281C13.6652 14.9261 13.6705 15.1016 13.5639 15.1161C13.4706 15.1289 13.5979 14.9307 13.623 14.8399C13.6914 14.5931 13.7688 14.3489 13.844 14.104C13.9227 13.8477 14.0022 13.5916 14.0847 13.3366C14.2201 12.9182 14.2373 12.9065 14.1044 13.3405C13.9631 13.8024 13.638 14.815 13.4968 15.2464C13.4286 15.4547 13.3653 15.6648 13.2876 15.8698C13.1714 16.1766 13.4462 15.2329 13.5343 14.9169C13.5846 14.7363 13.9584 13.3973 14.0571 13.0761C14.2314 12.509 13.7852 14.2315 13.6309 14.8044C13.5454 15.1221 13.3228 16.0725 13.3271 15.7435C13.3374 14.9669 13.6121 14.1767 13.7138 13.4076C13.7216 13.3489 13.7352 13.1765 13.7099 13.23C13.6318 13.3947 13.5998 13.5775 13.55 13.7528C13.4605 14.0684 13.2403 14.8972 13.1515 15.2602C12.8919 16.3222 13.6446 13.0812 14.2465 12.1686C14.3742 11.975 14.6779 11.646 14.8423 11.8095C14.9326 11.8993 14.9285 12.0532 14.9331 12.1804C14.9455 12.5238 14.834 13.0472 14.7614 13.38C14.684 13.7346 14.6685 13.7664 14.6983 13.3957C14.7175 13.156 14.7483 12.9173 14.7673 12.6776C14.7722 12.6162 14.8759 11.5124 14.795 11.3005C14.7058 11.0669 14.5277 11.7308 14.4596 11.9713C14.3957 12.1968 14.3439 12.4258 14.2998 12.6559C14.2754 12.7827 14.2439 12.9119 14.2544 13.0406C14.2576 13.0796 14.3119 12.9833 14.3234 12.9459C14.3469 12.8698 14.5002 12.2946 14.3767 12.1784C14.316 12.1214 14.201 12.2149 14.1478 12.2791C13.8524 12.6355 13.573 13.3487 13.3863 13.739C13.3227 13.872 13.099 14.5354 13.1022 13.9521C13.1037 13.666 13.1432 13.3813 13.1634 13.0959C13.1866 12.7671 13.2185 12.4387 13.2324 12.1094C13.2402 11.9241 13.2785 11.7316 13.2285 11.553C13.1424 11.246 12.9835 12.1447 12.9088 12.4547C12.7872 12.9596 12.5042 14.4924 12.609 13.9837C12.7228 13.4309 12.8463 12.6781 12.9286 12.1449C12.9754 11.8416 13.0192 11.5378 13.0588 11.2334C13.1164 10.7903 13.1088 10.7319 13.0312 11.1742C12.9944 11.3836 12.8689 12.145 12.8575 12.3915C12.8349 12.8824 13.154 11.452 13.2442 10.969C13.2861 10.7452 13.3661 10.081 13.2679 10.2864C12.8992 11.0582 12.8171 11.943 12.4886 12.7289C12.3902 12.9644 12.4503 12.2172 12.4768 11.9634C12.5337 11.4173 12.7305 9.78563 12.6129 10.3219C12.5027 10.8246 12.3165 11.9762 12.238 12.433C11.9917 13.8682 12.1 12.8514 12.1315 12.2712C12.1496 11.9385 12.1737 11.606 12.1828 11.2729C12.1876 11.0986 12.2509 10.9059 12.1729 10.75C12.1255 10.6552 12.093 10.9479 12.0723 11.0519C11.9606 11.6135 11.7764 12.9826 11.7093 13.4944C11.6482 13.9606 11.5708 14.4258 11.5436 14.8952C11.5388 14.978 11.5663 14.7308 11.5771 14.6486C11.5992 14.4809 11.6171 14.3127 11.6422 14.1455C11.6572 14.0456 11.6118 13.9011 11.6975 13.8476C11.7706 13.8019 11.7082 14.0199 11.7054 14.106C11.6964 14.3778 11.6773 14.6493 11.6619 14.9208C11.6445 15.2293 11.6204 15.5375 11.6067 15.8461C11.5944 16.124 11.5637 16.6073 11.6738 16.0355C11.7406 15.6887 11.8671 14.8149 11.9303 14.4611C11.941 14.401 11.9763 14.2225 11.9756 14.2836C11.9702 14.8336 11.8717 15.3789 11.8257 15.927C11.799 16.2444 11.7663 16.5616 11.7566 16.88C11.7531 16.9974 11.6796 17.1819 11.7862 17.2311C11.8402 17.2561 12.1233 16.1025 12.1749 15.9645C12.2547 15.7512 12.1291 16.4179 12.096 16.6432C12.0634 16.8656 12.0298 17.0879 11.9954 17.3101C11.9311 17.7245 11.9358 17.6983 11.9717 17.3002C11.9927 17.0673 12.0729 16.2883 12.0763 16.0217C12.0816 15.5939 11.9005 16.8596 11.8356 17.2824C11.7913 17.5709 11.7458 17.9425 11.7685 17.3929C11.7804 17.104 11.7997 16.8154 11.8178 16.5268C11.8378 16.209 11.8506 15.8906 11.8829 15.5739C11.9006 15.4008 11.8887 15.2139 11.9678 15.0589C12.0867 14.8258 12.1759 15.5421 12.2361 15.7968C12.2431 15.8264 12.4319 17.334 12.6681 16.4222C12.6942 16.3215 12.8533 15.5396 12.7589 15.3371C12.7324 15.2803 12.6341 15.3233 12.5715 15.3233C12.2726 15.3233 12.3333 15.4323 12.1966 15.057C12.1854 15.0262 12.149 14.4021 11.9796 14.8399C11.6596 15.6669 11.611 16.5779 11.3226 17.4126C11.3072 17.4571 11.2302 17.5503 11.2161 17.5054C11.1564 17.3159 11.1752 17.1099 11.1648 16.9115C11.1462 16.5573 11.1431 16.2025 11.1293 15.8481C11.1243 15.7219 11.0895 14.4797 11.0148 14.181C11.0068 14.1487 10.9332 14.1188 10.9201 14.1494C10.8457 14.3232 10.8279 14.5163 10.7919 14.7018C10.7385 14.9768 10.6959 15.2538 10.6518 15.5305C10.5844 15.9537 10.5847 16.3927 10.4545 16.801C10.3705 17.0646 10.4099 16.249 10.4072 15.9724C10.4036 15.6087 10.4055 15.245 10.4012 14.8814C10.3976 14.5637 10.3982 14.2458 10.3835 13.9284C10.3791 13.8329 10.3889 13.5599 10.344 13.6443C10.2699 13.7836 10.2996 13.9568 10.2848 14.1139C10.2548 14.4337 10.2366 14.7546 10.2099 15.0747C10.1853 15.3688 10.1732 15.6645 10.131 15.9566C10.0565 16.4715 9.99915 16.262 9.91788 15.8816C9.8483 15.5561 9.70458 14.5414 9.64166 14.2047C9.62148 14.0966 9.67041 13.8926 9.56077 13.885C9.45651 13.8778 9.53102 14.0923 9.52723 14.1968C9.51785 14.4557 9.52263 14.715 9.52132 14.9741C9.52 15.2345 9.52211 15.495 9.51934 15.7554C9.51817 15.8659 9.57687 15.9992 9.50948 16.0868C9.45222 16.1613 9.4875 15.9003 9.47988 15.8067C9.43436 15.2469 9.40839 14.7089 9.34967 14.1494C9.33268 13.9875 9.33314 13.8201 9.28062 13.666C9.26504 13.6204 9.23551 13.7541 9.23129 13.8022C9.17549 14.4386 9.19973 15.0875 9.19973 15.7258C9.19973 16.5955 9.20602 12.2594 9.07741 13.1195C8.96081 13.8993 8.94667 16.2669 8.91562 15.4792C8.90117 15.1124 8.90021 14.7452 8.89195 14.3783C8.88889 14.2422 8.86791 14.1048 8.88603 13.9699C8.92746 13.6614 9.00526 14.5808 9.06951 14.8853C9.19106 15.4614 9.33918 16.1729 9.58642 16.7221C9.89228 17.4015 9.98316 16.8407 10.0086 16.5051C10.0206 16.3477 10.0131 15.8738 10.0165 16.0316C10.0228 16.3225 10.0717 16.6895 9.97706 16.9687C9.85997 17.3142 9.61693 16.7944 9.58642 16.7438C9.02635 15.8146 8.65815 14.7691 8.25666 13.7667C8.17925 13.5734 7.97983 13.0022 7.97256 13.2103C7.95375 13.7488 8.16479 14.2804 8.20734 14.8123C8.22933 15.0872 8.01139 14.2968 7.91929 14.037C7.83061 13.7867 7.75019 13.533 7.64505 13.2892C7.61529 13.2202 7.53435 13.0307 7.51681 13.1038C7.4791 13.2609 7.54557 13.4261 7.57403 13.5852C7.66065 14.0693 7.85055 14.8759 7.9844 15.349C8.07973 15.6859 8.49796 16.6506 8.34545 16.3354C7.72666 15.0566 6.93926 13.8624 6.30346 12.5908C6.11611 12.2161 6.005 11.6916 5.72342 11.3656C5.22796 10.7919 4.35021 10.4199 3.59067 10.531C3.26153 10.5792 3.48852 10.967 3.59659 11.1229C4.03027 11.7485 4.75268 12.1728 5.34856 12.6145C6.01104 13.1055 6.69649 13.5446 7.10052 14.2796C7.13703 14.346 7.2237 14.5422 7.16169 14.4986C5.8439 13.5726 4.67358 12.3785 3.2099 11.6734C2.85485 11.5023 2.52386 11.3428 2.19581 11.1229C2.1523 11.0938 2.25727 11.2084 2.29446 11.2452C2.74313 11.6903 3.2069 12.1202 3.68143 12.5375C4.16637 12.964 4.69603 13.3448 5.16705 13.7864C5.19767 13.8151 5.61872 14.2897 5.53796 14.1001C5.12141 13.1221 4.7514 12.1391 4.43312 11.1229C4.3159 10.7487 4.17219 10.2526 4.0701 9.8563C4.00581 9.60675 3.9487 9.4862 4.1431 9.78133C4.47603 10.2868 4.60613 10.474 4.99146 11.0302C5.50924 11.7775 6.00208 12.615 6.60335 13.301C6.73879 13.4556 6.50629 12.8986 6.41789 12.7131C5.97942 11.793 5.51195 10.8822 5.02894 9.98455C4.92148 9.78483 4.85488 9.67618 4.98751 9.94706C5.29029 10.5654 5.61819 11.1804 5.9799 11.7661C6.09538 11.9531 6.21335 12.1395 6.34884 12.3126C6.41822 12.4012 6.48272 12.5185 6.59151 12.5474C6.64521 12.5616 6.62635 12.4345 6.60926 12.3817C6.48822 12.0071 6.13394 11.4987 5.93255 11.2097C5.72045 10.9055 5.37306 10.4421 5.09997 10.1522C5.05066 10.0999 4.94797 9.94355 4.93424 10.0141C4.91437 10.1163 5.01717 10.206 5.07235 10.2943C5.23456 10.5538 5.40781 10.8065 5.58531 11.0558C6.10881 11.7912 6.9324 12.879 7.48327 13.5812C7.71531 13.877 7.95007 14.1708 8.19353 14.4572C8.51311 14.8332 8.61661 14.909 8.30204 14.4355C7.25902 12.8655 6.01529 11.4324 5.02105 9.82868C4.98479 9.77019 4.94183 9.71226 4.92635 9.6452C4.92139 9.62371 4.96899 9.66021 4.98554 9.67479C5.68193 10.2884 6.35432 10.9411 7.03739 11.5688C7.80424 12.2736 8.17896 12.6168 8.89787 13.301C9.04441 13.4405 9.18623 13.585 9.33389 13.7233C9.3731 13.76 9.40466 13.8212 9.45818 13.8258C9.49154 13.8287 9.44285 13.7593 9.42464 13.7311C9.33571 13.5939 9.23855 13.462 9.13857 13.3326C8.41414 12.3951 7.62181 11.5092 6.82037 10.6376C6.30051 10.0722 5.77249 9.60044 5.33672 8.97638C5.21545 8.8027 5.0936 8.59549 4.91451 8.47525C4.79313 8.39375 4.20578 8.05588 4.23582 8.39633C4.24053 8.44962 4.36333 8.9901 4.36604 9.004C4.43892 9.3779 4.4668 9.74606 4.4706 10.1266C4.47563 10.6295 4.49598 11.1867 4.23188 11.6359C4.09657 11.866 3.89879 12.0565 3.73667 12.2672C3.67983 12.3411 3.6382 12.437 3.54924 12.4764C3.29899 12.5871 3.03869 12.575 2.77191 12.575C2.47715 12.575 2.42398 12.5479 2.4957 12.8788C2.55446 13.1501 2.62045 13.4742 2.73639 13.7272C3.03812 14.3855 3.43265 15.0127 3.88859 15.5778C4.06552 15.7971 4.31384 16.0043 4.51993 16.1973C4.64469 16.3142 4.71573 16.4535 4.81981 16.586C4.94453 16.7447 5.11981 16.847 5.26964 16.9786C5.80516 17.4488 6.33753 17.9254 6.8835 18.3833C7.06966 18.5395 7.33563 18.6857 7.5543 18.7898C7.90579 18.9569 8.22985 19.219 8.52498 19.4724C9.01628 19.8943 9.5949 20.2216 10.131 20.5812C10.3628 20.7367 10.5508 20.9285 10.7623 21.106C11.0478 21.3456 11.3821 21.4287 11.6975 21.6032C11.7978 21.6587 11.8719 21.7565 11.9697 21.8162C12.0002 21.8348 11.9995 21.8812 12.0092 21.8281C12.0469 21.6206 12.1075 21.4189 12.1315 21.2086C12.1944 20.6567 12.1748 20.0801 12.2104 19.5237C12.2381 19.0917 12.0658 19.8456 12.0585 19.8749C11.9755 20.2068 11.9035 20.5417 11.8987 20.885C11.8945 21.1835 11.8987 21.4822 11.8987 21.7807C11.8987 21.7942 11.9031 21.903 11.8967 21.8261C11.8781 21.6028 11.7741 21.4112 11.6383 21.2362C11.3836 20.9081 11.0489 20.6506 10.7781 20.3365C10.5298 20.0487 10.3957 19.7295 10.2178 19.4014C9.09573 17.3323 6.86555 16.5175 4.92241 15.4397C4.48525 15.1972 3.84727 14.8756 3.6183 14.3881C3.51766 14.1739 3.50883 13.926 3.47427 13.6956C3.43022 13.402 3.37362 13.1094 3.34406 12.8137C3.32992 12.6723 3.47202 13.3409 3.47822 13.3563C3.85665 14.2932 4.58932 15.0817 5.17889 15.8876C5.63598 16.5123 6.05096 17.1688 6.53232 17.7757C6.89938 18.2384 7.30946 18.6678 7.81078 18.987C8.30908 19.3044 8.86578 19.4451 9.40097 19.6776C9.53885 19.7375 9.80776 19.94 9.59826 19.6302C8.95695 18.682 8.13135 17.8665 7.35701 17.0299C6.42773 16.0259 5.5315 14.9919 4.60674 13.9837C4.42929 13.7902 4.25407 13.5947 4.07404 13.4036C4.04163 13.3692 3.93496 13.2853 3.95369 13.3287C4.0185 13.4787 4.13023 13.6419 4.21609 13.7667C4.66585 14.4203 5.17408 15.0323 5.6958 15.6291C6.29631 16.3161 7.00379 16.932 7.56022 17.6553C8.02815 18.2636 8.48996 18.7525 9.1504 19.1686C9.70251 19.5163 10.5598 19.8888 10.8077 19.0482C10.817 19.0166 10.8569 18.67 10.8688 18.8568C10.8873 19.1453 10.9852 19.4375 11.0937 19.7032C11.1391 19.8143 11.2052 19.9074 11.2318 20.0248C11.2372 20.0483 11.2856 20.2048 11.2457 20.0879C11.1107 19.6926 10.9132 19.3146 10.7386 18.9357C10.659 18.7629 10.4698 18.2318 10.492 18.4208C10.5478 18.8954 10.9217 19.2571 11.0622 19.6973C11.0715 19.7265 11.1878 20.3257 11.3009 20.1136C11.3483 20.0247 11.393 19.8524 11.4173 19.7683C11.4458 19.6699 11.5182 19.3889 11.5436 19.4882C11.6051 19.7284 11.5704 20.0003 11.583 20.2458C11.5969 20.5153 11.6766 20.785 11.7389 21.0468C11.8148 21.3657 11.9347 21.6459 12.094 21.9326C12.2037 22.13 12.3602 21.7731 12.3939 21.7057C12.5654 21.3627 12.7196 20.9824 12.8556 20.6246C13.0076 20.2246 13.1417 19.7778 13.1417 19.3461C13.1417 18.9417 13.1417 20.155 13.1417 20.5595C13.1417 20.7693 13.1417 20.9791 13.1417 21.1888C13.1417 21.3136 13.4078 21.0412 13.5007 20.9896C13.7378 20.8579 13.9404 20.7065 14.1893 20.5989C14.322 20.5416 14.6676 20.3383 14.3964 20.6226C14.0315 21.0054 13.3369 20.9278 13.0213 21.3486C12.8195 21.6178 13.5559 20.9399 13.8164 20.7272C14.1972 20.4162 14.6284 20.1711 15.0495 19.9202C16.0007 19.3536 16.6383 18.5475 17.3815 17.7461C17.6856 17.4181 17.89 17.0202 18.1884 16.6866C18.6544 16.1657 19.057 15.5278 19.4314 14.9406C19.7103 14.503 19.9518 14.0377 20.2561 13.6167C20.4685 13.3227 20.7284 13.0632 20.9683 12.792C21.3349 12.3776 21.6922 11.9743 21.9982 11.5116C22.0902 11.3724 22.1709 11.2243 22.2803 11.0973C22.4168 10.9387 22.3764 11.1802 22.3671 11.2689C22.3252 11.6706 22.106 12.0809 21.8857 12.4132C21.706 12.6843 21.6592 13.0122 21.5148 13.301C21.3475 13.6356 21.1256 13.9356 20.9624 14.2717C20.7206 14.7695 20.4012 15.3439 19.9838 15.7159C19.6472 16.0159 19.2913 16.228 19.0092 16.588C18.7361 16.9363 18.5284 17.3157 18.1963 17.6139C17.7393 18.0242 17.2102 18.3595 16.6771 18.6595C15.8888 19.1032 15.1118 19.5668 14.3096 19.9853C13.7082 20.2992 13.1502 20.5921 12.6721 21.0862C12.5772 21.1843 12.5309 21.3046 12.4728 21.4256C12.4262 21.5227 12.552 21.4887 12.6168 21.4887C12.6578 21.4887 12.9509 21.5236 12.9838 21.4729C13.0232 21.4122 13.0322 21.3365 13.0548 21.2678C13.1762 20.8986 13.3095 20.5338 13.4632 20.1767C13.6272 19.796 13.8731 19.4459 14.0058 19.0541C14.0893 18.8076 14.0768 18.8277 14.1794 18.5648C14.2196 18.4618 14.3153 18.0908 14.4241 18.0164C14.4893 17.9717 14.4468 18.1743 14.4398 18.2531C14.409 18.6027 14.2933 18.9548 14.2781 19.3027C14.2729 19.4209 14.4548 19.1403 14.5148 19.0383C14.9425 18.3117 15.3225 17.5563 15.7755 16.8444C15.8801 16.68 16.1175 16.243 16.1839 16.4262C16.2864 16.709 16.0348 17.2669 15.959 17.535C15.9306 17.6356 15.8568 17.9308 15.8446 17.827C15.8066 17.5043 15.9107 17.1319 15.9491 16.8129C15.9729 16.6154 15.9848 16.5501 15.9176 16.7852C15.8017 17.1908 15.714 17.6066 15.5723 18.0045C15.5666 18.0205 15.5407 18.0628 15.5427 18.046C15.5511 17.9768 15.5723 17.9096 15.592 17.8427C15.6184 17.7536 15.6466 17.6648 15.6808 17.5784C15.6941 17.5447 15.7297 17.4477 15.7341 17.4837C15.7426 17.5541 15.7116 17.6239 15.6946 17.6928C15.6333 17.9412 15.5189 18.324 15.4381 18.5648C15.2453 19.14 15.3726 18.5949 15.3947 18.5175C15.431 18.3904 15.4351 18.2243 15.5447 18.1505C15.5819 18.1255 15.5959 18.4543 15.6039 18.4741C15.6167 18.5062 15.8147 17.7874 15.7775 17.9335C15.752 18.0336 15.6843 18.3341 15.6788 18.4346C15.6689 18.6181 15.8982 18.137 15.9768 17.971C16.0509 17.8144 16.0888 17.6251 16.2194 17.5113C16.2678 17.4692 16.2229 17.7395 16.2707 17.6967C16.3617 17.6155 16.4634 16.9301 16.4365 17.5133C16.4301 17.6509 16.3837 18.0611 16.4088 17.9256C16.498 17.4438 16.522 16.936 16.5746 16.4499C16.5917 16.2914 16.6066 16.1326 16.6259 15.9744C16.6316 15.9274 16.6202 15.7971 16.6495 15.8343C16.7576 15.9712 16.5362 16.3904 16.687 16.511C16.7219 16.539 16.7574 16.4512 16.7758 16.4104C16.8406 16.2667 16.8851 16.1145 16.9336 15.9645C16.997 15.7685 17.0506 15.5695 17.1112 15.3726C17.1654 15.1963 17.2669 14.6897 17.3282 14.8636C17.3739 14.9933 17.321 15.7853 17.3203 15.7948C17.297 16.1416 17.0976 17.151 17.2414 16.8346C17.28 16.7496 17.4297 16.17 17.4348 16.1519C17.5823 15.6274 17.4498 16.1521 17.3992 16.2249C17.292 16.3796 17.3232 16.2204 17.2493 16.2013C17.2267 16.1954 17.2046 16.2249 17.196 16.2466C17.109 16.4682 17.0823 16.709 17.0145 16.9372C16.9808 17.0508 16.9306 17.3459 16.8547 17.2548C16.8311 17.2264 16.843 16.8949 16.8192 17.1404C16.8177 17.1563 16.78 17.6026 16.7797 17.6139C16.779 17.6437 16.7654 17.7171 16.7916 17.7027C16.9263 17.6286 16.9157 17.4214 16.977 17.2805C17.1904 16.7896 17.4437 16.3354 17.636 15.8303C17.6931 15.6804 17.704 15.4979 17.8175 15.3845C17.8663 15.3356 17.7721 15.6469 17.8136 15.5916C17.8864 15.4944 17.8989 15.364 17.9359 15.2483C17.963 15.1637 17.9863 15.078 18.0148 14.9938C18.0549 14.8755 18.07 14.8218 18.07 14.978C18.07 15.7671 18.0503 14.7101 18.0503 15.5226C18.0503 15.8491 18.1636 15.4514 18.1864 15.3943C18.2261 15.2952 18.231 15.0494 18.3226 15.1043C18.3957 15.1482 18.2889 15.6376 18.2871 15.7159C18.276 16.1943 18.4417 14.7485 18.6856 14.3368C18.7503 14.2277 18.6642 14.5898 18.6481 14.7156C18.6228 14.9137 18.5548 15.2668 18.729 14.8084C18.8443 14.505 18.943 14.1955 19.0605 13.8929C19.2048 13.5211 19.2029 13.6538 19.2163 13.9304C19.2221 14.049 19.1449 14.2836 19.2637 14.2836C19.353 14.2836 19.4584 13.7393 19.4787 13.6759C19.5956 13.3112 19.5006 14.1706 19.6661 13.8318C19.7173 13.727 19.8935 12.7367 19.9246 12.7328C19.9913 12.7245 20.0361 12.677 20.0982 12.5612C20.1158 12.5284 20.2146 12.2988 20.2639 12.2988C20.3199 12.2988 20.3251 13.0758 20.3508 13.159C20.3741 13.235 20.3808 13.0029 20.3922 12.9242C20.4216 12.7202 20.4593 12.5195 20.5046 12.3185C20.6244 11.788 20.769 11.2712 20.8124 10.7283" stroke="#F42C3C" stroke-linecap="round"/>
<path d="M21.4513 11.5449C21.3913 11.629 21.2593 11.9661 21.1238 11.9711C20.8643 11.9807 20.6094 12.0066 20.3485 12.0066C19.6882 12.0066 19.0362 11.9941 18.3874 12.1427C17.4228 12.3637 16.4894 12.6877 15.5325 12.9339C15.0827 13.0496 14.4221 13.2368 13.966 13.0522C13.698 12.9438 13.4409 12.8101 13.1729 12.7011C12.7957 12.5476 12.3781 12.514 11.9773 12.4564C11.4591 12.3819 10.7872 12.3833 10.5351 12.9457C10.5084 13.0052 10.4219 13.2528 10.4937 13.3206C10.5679 13.3907 10.7745 13.3909 10.8685 13.4074C11.0315 13.4359 11.2333 13.4113 11.3854 13.4823C11.5415 13.5552 11.6335 13.7023 11.7642 13.8099C11.9668 13.9766 12.1962 14.1033 12.3936 14.2774C12.6076 14.4663 12.7719 14.5382 13.0269 14.6345C13.0769 14.6534 13.2376 14.6828 13.2636 14.7312C13.376 14.9398 13.2484 15.3834 13.1808 15.5815C12.9802 16.1693 12.6812 16.7253 12.4587 17.3059C12.4142 17.422 12.3698 17.5363 12.3068 17.6413C12.2066 17.8082 12.2257 18.1503 11.9911 18.1503C11.4091 18.1503 10.8271 18.1503 10.2451 18.1503C9.89214 18.1503 9.60876 17.7652 9.34738 17.5722C9.13974 17.419 8.98633 17.5025 8.98633 17.227" stroke="#F42C3C" stroke-linecap="round"/>
</svg>
